<?xml version="1.0" encoding="UTF-8" standalone="no"?>
<!-- Created with Inkscape (http://www.inkscape.org/) -->

<svg
   version="1.1"
   id="svg1"
   width="730"
   height="730"
   viewBox="0 0 730 730"
   xmlns="http://www.w3.org/2000/svg"
   xmlns:svg="http://www.w3.org/2000/svg">
  <defs
     id="defs1" />
  <g
     id="g1">
    <g
       id="g224"
       transform="translate(1.7076006)">
      <path
         id="path246"
         style="fill:#f9f9f9"
         d="m 272.36271,64.888672 -93.06445,46.105468 5.97656,144.29297 -37.28515,0.0879 1.42578,0.76562 L 94.772868,321.88281 48.667399,436.29297 38.421306,524.23438 105.01701,584 l 31.5918,-4.26953 47.8125,-35.85938 27.32226,19.63672 -27.32226,27.32227 39.27539,62.32812 140.87695,-63.18164 163.07617,-45.25195 -5.12305,-23.90625 28.17579,-12.80664 100.74804,-87.08789 -17.07617,-45.25195 -70.86523,37.56835 16.22265,-164.7832 83.67188,-24.76172 21.3457,-79.40234 -93.06445,16.2207 8.53711,-85.378904 -90.50196,35.005854 -9.39257,67.44922 -71.71875,24.76172 -17.07618,35.85938 -26.46875,-6.83008 -18.7832,6.83008 -21.3457,24.75976 -15.36719,-33.29882 -53.78906,8.53906 z m -93.57226,268.863278 17.07617,0.42774 -4.69531,87.9414 -65.74414,81.53711 17.5039,-88.36718 z m 275.35156,87.94141 64.46094,79.83008 -85.37891,8.96484 0.42578,-26.4668 z m -94.3457,33.72461 37.14062,64.03515 -65.31641,16.6504 7.25782,-29.0293 z" />
      <path
         style="fill:#141414"
         d="m 217.22072,666.8509 c -6.15557,-2.18003 -29.50485,-31.53552 -45.5,-57.20412 -8.56646,-13.74721 -3.36965,-27.00443 13.81193,-35.23466 7.94124,-3.80397 8.28966,-4.23386 4.74176,-5.85039 -1.34548,-0.61304 -4.21252,-2.71027 -6.3712,-4.66052 -5.17174,-4.67235 -4.34776,-5.05791 -15.18885,7.10712 -35.95726,40.34844 -54.5771,39.982 -108.493643,-2.13516 -32.0337,-25.02328 -34.50224,-29.43945 -34.49741,-61.71527 0.0152,-101.99247 86.515143,-266.63718 139.865793,-266.22188 l 10.36839,0.0807 -0.6639,-12.08071 c -0.36515,-6.64438 -1.09463,-17.7057 -1.62107,-24.5807 -7.77793,-101.57542 -7.53059,-105.855569 6.57706,-113.816179 71.02355,-40.07683 94.08496,-46.62134 103.16414,-29.27654 l 2.307,4.40729 0.0153,78.092709 c 0.018,91.98818 -2.53583,81.8675 19.22222,76.1754 28.00955,-7.32754 35.53396,-5.14972 40.24744,11.64899 l 1.69068,6.02555 4.41154,-4.4746 c 3.65273,-3.70495 6.77673,-5.42502 18.16217,-10.00006 20.46877,-8.22502 23.73093,-8.34312 32.1195,-1.16281 5.27598,4.51604 5.54058,4.21107 7.04477,-8.11975 3.18753,-26.13028 2.89064,-25.95422 66.08637,-39.19004 16.53263,-3.46262 14.59265,1.65783 20.57639,-54.30996 2.91391,-27.254639 0.54398,-25.302589 53.97758,-44.459999 47.95373,-17.19273 49.30341,-17.36593 57.8172,-7.41948 6.66423,7.78567 6.68657,8.55492 1.44848,49.879479 -3.24257,25.58139 -3.32386,27 -1.54706,27 0.8527,0 15.8777,-3.41328 33.38889,-7.58506 41.5254,-9.89283 45.88566,-9.8618 52.84244,0.37602 4.8068,7.07384 5.07276,11.99247 1.49828,27.70904 -1.75124,7.7 -5.37442,23.77362 -8.05151,35.71916 -5.36649,23.94602 -6.09172,25.86865 -11.65309,30.89301 -4.24265,3.83298 -0.98255,2.84029 -52.1077,15.86654 -35.72296,9.1019 -33.18284,8.15888 -33.21287,12.33031 -0.0126,1.75504 -1.81626,19.16598 -4.00805,38.69098 -9.08148,80.9 -10.02466,91.10278 -8.46898,91.61258 0.55,0.18024 8.425,-5.09888 17.5,-11.73138 35.65148,-26.05601 41.52426,-25.26365 59.91461,8.08367 20.00297,36.27151 20.42117,34.98014 -24.20666,74.74979 -17.14874,15.28194 -38.33967,34.41477 -47.09096,42.5174 -17.27025,15.99017 -20.98993,18.35721 -31.309,19.92369 -9.86558,1.49764 -9.46435,1.22578 -7.77532,5.26821 7.42431,17.76885 -2.59629,29.29102 -31.48103,36.19841 -74.62541,17.84566 -118.10405,30.32828 -162.55164,46.66821 -42.13275,15.48895 -63.78011,25.30034 -113.29088,51.34764 -9.01124,4.74076 -12.82852,5.29418 -19.70912,2.85737 z m 35.63964,-41.79043 c 68.75017,-34.67413 147.46045,-61.47579 244.36036,-83.20721 19.17743,-4.30086 19.5,-4.39231 19.5,-5.52821 0,-1.01661 -21.4367,-19.13804 -24.5,-20.71099 -3.87049,-1.98742 -53.7848,5.50924 -98,14.71868 -95.59485,19.91114 -205.02189,57.94616 -197.91537,68.79208 5.00769,7.64269 28.65281,39.23049 29.36608,39.23049 0.45571,0 12.69073,-5.98268 27.18893,-13.29484 z m -124.125,-53.71263 c 6.65829,-3.39681 24.08084,-21.87311 49.97023,-52.99253 27.92959,-33.57178 26.42307,-33.94476 23.99736,5.94117 -1.25629,20.65694 -2.9168,19.81276 20.17052,10.25434 10.64099,-4.4055 24.07225,-9.77099 29.84725,-11.92331 l 10.5,-3.91331 -0.30381,-16.42945 c -0.16709,-9.03619 -0.71967,-34.87944 -1.22795,-57.42944 -0.50827,-22.55 -1.41863,-113.225 -2.02301,-201.5 -0.61894,-90.40099 -1.48654,-160.899389 -1.98648,-161.414439 -2.74455,-2.82748 -63.95769,30.420919 -63.96168,34.741289 -0.002,1.74523 0.44827,9.02315 0.99973,16.17315 1.45484,18.86293 3.77889,54.10756 5.01148,76 0.58836,10.45 1.73052,30.025 2.53813,43.5 2.2467,37.48618 3.47663,34.57156 -10.89849,25.82666 -27.63244,-16.80981 -30.94734,-16.59352 -48.37,3.15603 -48.409073,54.87437 -88.114853,152.45147 -90.990383,223.60917 -0.88994,22.02256 -0.5896,22.57639 22.03192,40.62707 28.345403,22.61801 45.258493,30.58784 54.695183,25.7736 z M 117.24957,520.97507 C 95.295837,499.02134 138.02194,361.224 182.34679,311.02792 c 5.07441,-5.74657 5.84243,-5.76023 14.35217,-0.25531 l 6.82844,4.4173 0.68592,8.3327 c 0.37725,4.58299 0.53324,28.8077 0.34665,53.8327 l -0.33925,45.5 -2.46833,4 c -17.76819,28.79393 -59.45832,80.0487 -75.37147,92.66339 -5.69093,4.51132 -6.02338,4.56434 -9.13135,1.45637 z m 39.97115,-72.84735 c 20.9039,-27.53874 19.40897,-24.84574 20.45831,-36.85412 1.7608,-20.14999 2.42176,-44.91829 1.19868,-44.91829 -5.17961,0 -36.15699,82.76983 -36.15699,96.60948 0,3.9709 1.00045,2.94719 14.5,-14.83707 z m 204.95941,65.6853 c 9.31149,-2.13878 9.19643,-1.9344 4.21081,-7.47961 -2.63405,-2.92969 -4.88895,-6.68769 -5.65542,-9.42525 -1.76382,-6.29972 -2.04097,-5.99677 -6.13844,6.70989 -3.74267,11.60639 -3.87576,13.17791 -1.0422,12.30606 0.91621,-0.28191 4.79758,-1.2319 8.62525,-2.11109 z m -58.04423,-8.40271 c 9.06487,-2.71976 18.06378,-5.24183 19.99758,-5.60461 4.95448,-0.92947 4.32865,0.61804 15.54977,-38.45039 20.56445,-71.59896 27.70519,-95 28.98891,-95 1.19977,0 2.01926,3.82384 2.03596,9.5 0.0459,15.60951 10.70715,102.19223 13.14393,106.7454 1.17314,2.19203 -0.0727,2.34988 13.19544,-1.67187 6.21734,-1.88456 15.0682,-4.14049 19.66857,-5.01316 4.60037,-0.87268 8.51462,-1.73699 8.69833,-1.92071 0.32477,-0.32477 5.45174,-22.96095 9.3179,-41.13966 1.05274,-4.95 3.52057,-16.425 5.48405,-25.5 4.18075,-19.32293 5.88411,-27.35535 12.51155,-59 14.61856,-69.80062 19.00913,-89.43412 20.28403,-90.70499 0.66484,-0.66274 7.87088,-2.89952 16.01343,-4.97062 16.90297,-4.29936 16.79348,-4.33078 15.52969,4.45693 -0.45234,3.14527 -1.50281,11.56868 -2.33439,18.71868 -0.83158,7.15 -2.62224,21.775 -3.97924,32.5 -1.35701,10.725 -3.5922,29.175 -4.96709,41 -1.3749,11.825 -3.65514,31.4 -5.0672,43.5 -5.8109,49.79389 -7.18929,45.94483 28.95137,80.8448 32.14266,31.0392 25.89243,31.52793 65.894,-5.15251 16.60979,-15.23076 36.17781,-33.04497 43.48449,-39.58713 8.29294,-7.42521 13.17194,-12.49799 12.98431,-13.5 -4.49293,-23.99395 -13.48934,-27.54391 -33.51745,-13.2259 -64.54059,46.13978 -64.38092,46.27448 -53.78761,-45.37926 3.44172,-29.77791 7.42493,-65.03769 8.07716,-71.5 5.74743,-56.9449 -3.77278,-48.68259 79.97808,-69.41067 8.27792,-2.04876 15.60507,-4.0676 16.28256,-4.48631 0.67749,-0.41871 3.20802,-9.27568 5.6234,-19.68216 2.41538,-10.40647 5.32281,-22.27628 6.46096,-26.37735 2.57655,-9.28407 2.15847,-9.71209 -7.0523,-7.21984 -4.05095,1.09611 -16.14037,4.09941 -26.86537,6.674 -10.725,2.57459 -28.43959,6.89086 -39.36576,9.5917 -10.92616,2.70085 -20.30933,4.91063 -20.85149,4.91063 -1.32506,0 -0.49108,-8.00922 4.78986,-46 2.40827,-17.325 4.64272,-33.415849 4.96542,-35.757439 0.85163,-6.17944 -0.41046,-6.17519 -17.24212,0.058 -8.13775,3.013619 -20.87091,7.619869 -28.29591,10.236109 -16.49522,5.81219 -15.97137,5.33485 -17.1081,15.58891 -0.98412,8.87747 -5.26928,45.0064 -6.91284,58.28342 -0.53848,4.34996 -0.97906,8.27162 -0.97906,8.71482 0,1.5061 -3.53485,2.70391 -15.52721,5.26148 -6.58503,1.40437 -22.9471,5.04219 -36.36014,8.08405 -13.41304,3.04186 -24.51565,5.53065 -24.67245,5.53065 -1.00889,0 -4.22855,14.92061 -17.37081,80.5 -3.30663,16.5 -7.43673,36.525 -9.178,44.5 -1.74126,7.975 -3.89166,17.8389 -4.77866,21.91977 -3.59721,16.54988 -3.78129,15.44803 -13.10083,-78.41977 -1.14672,-11.55 -2.35164,-23.5875 -2.67759,-26.75 -0.70614,-6.85115 -0.89929,-6.89529 -12.73735,-2.91034 -9.61093,3.23525 -6.81797,-2.19954 -23.9789,46.66034 -33.23476,94.62466 -30.14588,94.29648 -31.36934,3.33292 -0.89433,-66.49301 4.55267,-59.20784 -35.6273,-47.65024 l -6.87858,1.9786 0.68308,28.66936 c 0.37569,15.76815 1.31445,49.14436 2.08614,74.16936 0.77168,25.025 1.89764,68.225 2.50212,96 1.03017,47.3348 1.5272,59 2.51388,59 0.22304,0 7.82224,-2.22525 16.88712,-4.945 z m 160.08482,-12.05365 c 6.6,-1.07924 15.50166,-2.26193 19.78146,-2.6282 10.4273,-0.89238 10.46557,-0.68019 -2.63938,-14.63575 -13.76858,-14.66225 -14.86917,-16.03424 -18.22993,-22.72537 -3.3911,-6.75154 -3.56657,-6.46123 -7.85,12.98797 -2.08184,9.45271 -4.79314,18.84381 -6.34803,21.98762 -1.49277,3.01819 -2.86412,5.83069 -3.04745,6.25 -0.54963,1.25708 5.63654,0.83992 18.33333,-1.23627 z"
         id="path224" />
    </g>
  </g>
</svg>
